<?xml version="1.0" encoding="utf-8"?>
<!-- Uploaded to: SVG Repo, www.svgrepo.com, Generator: SVG Repo Mixer Tools -->
<svg width="800px" height="800px" viewBox="0 -62.03 434.789 434.789" xmlns="http://www.w3.org/2000/svg"><defs><style>.a{fill:#ffffff;}.b{fill:#85807f;}.c{fill:#211715;}.d{fill:#ffda71;}.e{fill:#7abee6;}.f{fill:#f8b8b4;}</style></defs><path class="a" d="M362.824,147.068a5.23,5.23,0,0,1,3.618-1.558,4.786,4.786,0,0,1,4.423,2.023c1.611,2.347,1.844,6.85,1.052,9.7a14.98,14.98,0,0,1-4.077,7.448,5.784,5.784,0,0,1-4.276,1.5l-.423-.041a31.688,31.688,0,0,1-1.24,4.043,42.853,42.853,0,0,1-11.015,16.051v.9a99.9,99.9,0,0,1-13.736,13.312l-2.131.753c-4.128-2.477-12.588-7.685-17.047-10.413v-.265a29.249,29.249,0,0,1-10.324-7.161,37.513,37.513,0,0,1-8.281-13.051,5.675,5.675,0,0,1-4.787-.835,14.982,14.982,0,0,1-5.014-6.853c-1.156-2.721-1.512-7.216-.22-9.753a4.787,4.787,0,0,1,4.121-2.582,5.231,5.231,0,0,1,3.791,1.073s-8.866-29.89,25.356-35.668C363.912,108.718,362.824,147.068,362.824,147.068Z"/><path class="b" d="M354.254,106.8c6.709,5.145,13.007,13.438,14.4,26.189a39.448,39.448,0,0,1-.744,12.632,6.55,6.55,0,0,0-1.469-.11,5.23,5.23,0,0,0-3.618,1.558c-2.812,3.777-11.942-11.268-15.666-14.965l-30.056.48c-4.515,2.682-16.346,15.481-18.482,20.66a4.872,4.872,0,0,0-5.153-2.958,6.4,6.4,0,0,0-1.582.351,40.855,40.855,0,0,1-2.428-12.466,37.913,37.913,0,0,1,14.267-30.87,41.522,41.522,0,0,1,45.182-3.965Z"/><path class="a" d="M53.948,172.073c-.836-1.385-1.58-2.71-2.121-3.815,8.848-2.693,17.893-6.671,22.808-12.979a13.843,13.843,0,0,0,3.755,6.66,6,6,0,0,0,2.015,1.207c-1.587,1.871-3.119,3.681-3.119,3.681-6.31,7.82-13.5,12.445-17.337,13.989A83.156,83.156,0,0,1,53.948,172.073Z"/><path class="c" d="M73.167,153.928c-5.114,6.734-14.083,10.015-21.871,12.4a2.032,2.032,0,0,0-1.2,2.938,68.54,68.54,0,0,0,8.434,12.963,1.928,1.928,0,0,0,1.946.514c7.18-2.936,13.383-8.559,18.221-14.5a2.059,2.059,0,0,0,0-2.828,2.015,2.015,0,0,0-2.829,0,55.129,55.129,0,0,1-9.19,9.035,43.45,43.45,0,0,1-4.053,2.756c-.617.37-1.244.723-1.883,1.051-.28.143-.562.283-.848.416-.065.03-.781.339-.481.216l1.946.515a64.239,64.239,0,0,1-7.809-12.153l-1.2,2.938c8.939-2.74,18.435-6.567,24.262-14.24a2.012,2.012,0,0,0-.717-2.736,2.051,2.051,0,0,0-2.737.717Z"/><path class="b" d="M152.267,149.5a39.887,39.887,0,0,0,2.613-10.767c.038-.437.069-.881.093-1.336.747-14.257-5.53-23.948-12.158-29.893a39.031,39.031,0,0,0-23.071-10.046,38.552,38.552,0,0,0-23.536,4.875A37.156,37.156,0,0,0,77.55,129.949a40.012,40.012,0,0,0,.388,12.439l-.148,15.034c-.5,6-4.646,11.572-4.563,17.724.245,1.571,1.152,4.82,1.993,5.916a20.736,20.736,0,0,0,14.372,7.923l2.709,4.023,42.191.8a51.648,51.648,0,0,0,5.729-.454c5.187-.51,11.394-2.865,13.267-8.136,2.093-5.885-1.239-12.832-.273-19Z"/><path class="a" d="M106.413,308.709c3.44-19.01,8.07-45.18,11.18-59.44,2.558-11.663,4.968-23.58,8.224-35.168l-.584.171a37.157,37.157,0,0,1-17.529.609,47.378,47.378,0,0,1-14.766-6.189c-3.9,19.317-7.265,37.9-12.025,56.967-3.71,11.28-11.96,28.12-19.28,43.05Z"/><path class="a" d="M134.585,135.718c-.553-.914-1.022-1.741-1.392-2.429,0,0-2.368-4.4-5.593-10.4l-.071.089a47.114,47.114,0,0,1-24.022,16.335c-3.638,1.1,3.253-16.778-1.307-11.494-6.07,5.966-12.576,12.111-18.625,17.07a5.076,5.076,0,0,0-3.694-1.728,4.689,4.689,0,0,0-4.347,1.954c-1.594,2.29-1.851,6.7-1.093,9.5a14.678,14.678,0,0,0,3.949,7.325,5.561,5.561,0,0,0,4.536,1.452,36.744,36.744,0,0,0,6.291,13.78c3.133,4.216,6.548,7.28,10.565,9.093q-.282.484-.562.949c-.272.45-.534.875-.788,1.281-.309.492-.605.955-.867,1.35l-.042.063c-.109.164-.22.328-.335.49-.033.047-.068.093-.1.139a5.69,5.69,0,0,1-.449.552c-1.316,5.959-2.533,11.819-3.7,17.614a47.63,47.63,0,0,0,14.768,6.179c5.429,1.147,12.82,1.086,18.127-.816,1.112-3.956,2.324-7.873,3.676-11.729a1.9,1.9,0,0,0-.182-.233c-.079-.094-.158-.188-.241-.282-.113-.129-.226-.257-.343-.386q-.33-.366-.649-.731c-.054-.062-.111-.125-.164-.187-.157-.186-.3-.372-.432-.558-.035-.05-.08-.1-.113-.15a9.95,9.95,0,0,1-1.2-2.13,8.039,8.039,0,0,1-.385-2.062c-.008-.1-.017-.2-.024-.3-.013-.183-.016-.367-.026-.55a40.907,40.907,0,0,1,.175-6.73c8.643-2.492,16.336-13.394,17.727-16.389a30.994,30.994,0,0,0,1.746-3.759l.4.1a5.666,5.666,0,0,0,4.353-.887,14.675,14.675,0,0,0,4.956-6.684c1.151-2.659,1.528-7.062.278-9.557a4.69,4.69,0,0,0-4.022-2.556,5.126,5.126,0,0,0-3.722,1.028C142.5,147.431,137.433,140.428,134.585,135.718Z"/><path class="c" d="M75.274,160.107c-1.025,3.761-2.854,7.279-3.633,11.109a12.764,12.764,0,0,0-.2,5.229,22.485,22.485,0,0,0,1.4,4.389c1.264,2.863,4.156,5.193,6.75,6.815a23.212,23.212,0,0,0,10.008,3.34,2.014,2.014,0,0,0,2-2,2.045,2.045,0,0,0-2-2A18.751,18.751,0,0,1,81.6,184.2c-2.065-1.291-4.449-3.148-5.346-5.489a16.335,16.335,0,0,1-1.018-3.6,11.571,11.571,0,0,1,.611-4.289c.9-3.28,2.386-6.365,3.28-9.648.678-2.487-3.18-3.548-3.857-1.064Z"/><path class="c" d="M134.492,195.812c6.782-.175,14.889-1.115,19.285-6.964,5.03-6.692.324-14.729,1.366-22.1a2.067,2.067,0,0,0-1.4-2.46,2.013,2.013,0,0,0-2.46,1.4c-.521,3.683.1,7.229.588,10.88.414,3.121.759,6.656-.986,9.454-3.227,5.173-10.982,5.653-16.4,5.792-2.569.066-2.579,4.067,0,4Z"/><path class="c" d="M124.7,212.343c-10.547,3.305-21.543.194-30.7-5.339-2.209-1.335-4.222,2.123-2.019,3.454,10.033,6.06,22.253,9.356,33.784,5.742,2.448-.767,1.4-4.63-1.064-3.857Z"/><path class="c" d="M123.923,188.039a33.974,33.974,0,0,0,.048,9.01,9.2,9.2,0,0,0,1.685,3.769c.718,1.027,1.81,2.049,2.45,2.94a2.056,2.056,0,0,0,2.736.718,2.017,2.017,0,0,0,.718-2.737c-1.351-1.881-3.352-3.306-3.713-5.62a31.675,31.675,0,0,1,.076-8.08,2.013,2.013,0,0,0-2-2,2.045,2.045,0,0,0-2,2Z"/><path class="c" d="M84.832,143.3a7.545,7.545,0,0,0-7.806-1.714,7.163,7.163,0,0,0-4.219,4.6c-1.63,4.542-.664,10.057,1.756,14.149,1.7,2.872,4.485,5.3,8.008,5.108,2.56-.137,2.577-4.138,0-4s-4.2-2.19-5.171-4.3a14.4,14.4,0,0,1-1.365-5.676,12.331,12.331,0,0,1,.381-3.423,5.426,5.426,0,0,1,.845-1.918c.237-.359-.306.3.049-.053.376-.376.2-.279.629-.531a3.222,3.222,0,0,1,1.186-.379,3.473,3.473,0,0,1,2.878.964c1.823,1.822,4.652-1.006,2.829-2.829Z"/><path class="c" d="M148.652,151.059a3.5,3.5,0,0,1,3.118-.663,3.329,3.329,0,0,1,1.153.512c-.188-.135.241.233.292.28.064.066.126.134.184.2-.119-.158-.139-.182-.061-.07,1.007,1.53.975,3.819.672,5.653a14.317,14.317,0,0,1-2.278,5.642c-1.116,1.733-3.1,3.907-5.4,3.443a2.05,2.05,0,0,0-2.46,1.4,2.019,2.019,0,0,0,1.4,2.46c5.78,1.168,9.677-4.03,11.668-8.73a15.839,15.839,0,0,0,1.173-7.523,8.146,8.146,0,0,0-2.505-5.7,7.48,7.48,0,0,0-8.971-.354,2.062,2.062,0,0,0-.718,2.736,2.014,2.014,0,0,0,2.736.718Z"/><path class="c" d="M144.238,165.117a32.762,32.762,0,0,1-6.776,11.966c-3.594,4.208-8.211,8.553-13.895,9.422a2.016,2.016,0,0,0-1.4,2.461,2.051,2.051,0,0,0,2.461,1.4c6.3-.964,11.663-5.772,15.659-10.45a37.439,37.439,0,0,0,7.805-13.731c.72-2.477-3.138-3.535-3.857-1.064Z"/><path class="c" d="M80.531,161.487c1.955,12.185,10.365,25.329,23.08,28.129,2.509.553,3.58-3.3,1.063-3.857-11.439-2.519-18.542-14.466-20.286-25.335a2.014,2.014,0,0,0-2.46-1.4,2.048,2.048,0,0,0-1.4,2.46Z"/><path class="c" d="M141,103.285a42.91,42.91,0,0,0-38.63-5.868,40.32,40.32,0,0,0-23.832,22.018,41.265,41.265,0,0,0-2.283,23.816c.472,2.527,4.328,1.457,3.858-1.063-2.187-11.7,1.1-23.847,9.633-32.281a38.305,38.305,0,0,1,49.235-3.169,2.014,2.014,0,0,0,2.737-.717,2.046,2.046,0,0,0-.718-2.736Z"/><path class="c" d="M154.876,148.628a41.986,41.986,0,0,0,.973-24.109,38.23,38.23,0,0,0-9.553-16.677c-1.795-1.853-4.621.977-2.829,2.828a34.047,34.047,0,0,1,8.525,14.913A37.717,37.717,0,0,1,153.2,136a38.945,38.945,0,0,1-2.181,11.569c-.807,2.451,3.054,3.5,3.857,1.063Z"/><path class="c" d="M108.138,173.357a13.821,13.821,0,0,0,6.3,1.859,10.589,10.589,0,0,0,6.41-1.247,2,2,0,0,0-2.019-3.454c-.216.14-.485.224-.69.371a1.564,1.564,0,1,0,.181-.081c-.079.026-.157.057-.236.083-.194.065-.393.121-.592.169-.231.056-.464.1-.7.139-.376.067.3-.023.029-.006-.129.008-.257.026-.386.035a14.188,14.188,0,0,1-2-.009c-.166-.012-.332-.027-.5-.044s-.421-.052-.118-.008c-.3-.044-.609-.1-.91-.163a10.851,10.851,0,0,1-1.4-.4,2.732,2.732,0,0,0-.328-.126c.115.024.426.193.133.053-.156-.075-.313-.148-.466-.229-.235-.123-.463-.259-.689-.4a2,2,0,1,0-2.019,3.454Z"/><path class="c" d="M114.408,159.157c.149.766.278,1.537.382,2.309l-.071-.531a5,5,0,0,1,.086,1.182l.071-.532a1.088,1.088,0,0,1-.061.234l.2-.478a.878.878,0,0,1-.069.119l.313-.405a.677.677,0,0,1-.1.1l.4-.313a.94.94,0,0,1-.154.081l.477-.2a2.106,2.106,0,0,1-.447.132l.531-.072a1.623,1.623,0,0,1-.412,0l.532.072c-.191-.028-.372-.089-.561-.127a2.13,2.13,0,0,0-1.541.2,2,2,0,0,0-.717,2.737,1.988,1.988,0,0,0,1.2.919,10.733,10.733,0,0,0,1.092.2,3.024,3.024,0,0,0,1.322-.178,2.935,2.935,0,0,0,1.175-.685,2.651,2.651,0,0,0,.629-1.079,3.052,3.052,0,0,0,.106-1.236c-.125-1.176-.3-2.348-.529-3.509a2.019,2.019,0,0,0-.92-1.195,2,2,0,0,0-2.736.717,2.228,2.228,0,0,0-.2,1.541Z"/><path class="c" d="M98.524,148.975c-.652,1.638-.583,5.519,2.667,6.083,4.329.286,4.895-4.36,3.6-6.656C103.723,146.521,100.27,145.523,98.524,148.975Z"/><path class="c" d="M133.175,151.468c.411,1.714-.213,5.545-3.51,5.638-4.325-.337-4.22-5.015-2.606-7.1C128.38,148.295,131.941,147.8,133.175,151.468Z"/><path class="c" d="M131.466,134.3a61.118,61.118,0,0,0,6.161,9.25c2.557,3.178,5.606,6.235,9.484,7.711a2.016,2.016,0,0,0,2.461-1.4,2.045,2.045,0,0,0-1.4-2.46q-.326-.129-.039-.006c-.086-.037-.172-.076-.257-.117-.2-.1-.4-.195-.6-.3-.35-.188-.691-.393-1.023-.61a13.462,13.462,0,0,1-1.932-1.5,34.886,34.886,0,0,1-4.012-4.326,57.917,57.917,0,0,1-5.392-8.261c-1.224-2.266-4.678-.248-3.454,2.019Z"/><path class="c" d="M102.451,124.765c-6.454,6.384-13.008,12.7-20.009,18.484a2.014,2.014,0,0,0,0,2.828,2.043,2.043,0,0,0,2.828,0c7-5.786,13.555-12.1,20.009-18.483,1.833-1.813-.995-4.641-2.828-2.829Z"/><path class="c" d="M126.63,120.912a47.233,47.233,0,0,1-17.373,14.144,42.415,42.415,0,0,1-5.142,1.985c-.252.08-.5.157-.758.233q-.7.166-.124.089a1.388,1.388,0,0,1,1.158.68q.151.43.045.1a.586.586,0,0,1-.028-.17,8.709,8.709,0,0,1,.009-.885c.153-2.827,1-5.595,1.342-8.4a2.012,2.012,0,0,0-2-2,2.049,2.049,0,0,0-2,2c-.28,2.291-1.009,5.118-1.277,7.641-.222,2.081.087,5.133,2.882,5.025,1.623-.062,3.46-.977,4.951-1.567a51.215,51.215,0,0,0,4.849-2.205,48.568,48.568,0,0,0,8.6-5.808,55.523,55.523,0,0,0,8.319-8.838,2.011,2.011,0,0,0-.717-2.736,2.051,2.051,0,0,0-2.737.717Z"/><path class="e" d="M114.9,119.5a216.1,216.1,0,0,1,39.436,6.023,2.209,2.209,0,0,1,1.71,1.6,37.942,37.942,0,0,1,.418,13.573,2.213,2.213,0,0,1-2.978,1.419c-12.828-4.2-21.96-5.536-40.807-6.964-7.676-.582-25.091-.824-34.618-.443a2.262,2.262,0,0,1-2.456-1.9,25.369,25.369,0,0,1,.953-9.511,13.824,13.824,0,0,1,.988-2.436,2.121,2.121,0,0,1,1.763-1.022C84.569,119.485,104.256,118.783,114.9,119.5Z"/><path class="c" d="M114.9,121.5c7.121.482,14.226,1.185,21.273,2.336,3.285.536,6.556,1.159,9.813,1.848q2.234.472,4.459.982,1.255.288,2.509.584c1.07.253,1.121.133,1.324,1.211a37.3,37.3,0,0,1,.33,11.22c-.066.569.189.611-.449.561a9.4,9.4,0,0,1-1.781-.586q-2.048-.648-4.115-1.233A119.129,119.129,0,0,0,132.9,135.2a280.1,280.1,0,0,0-35.544-2.617c-5.763-.091-11.532-.112-17.294.053-.527.015-2.131.358-2.489-.073-.263-.316-.061-1.886-.058-2.32a21.919,21.919,0,0,1,.166-2.758,20,20,0,0,1,1.115-4.59c.166-.426.325-.932.644-1.068a4,4,0,0,1,1.114-.065A288.057,288.057,0,0,1,114.9,121.5c2.57.168,2.559-3.832,0-4a290.5,290.5,0,0,0-33.876.238,11.519,11.519,0,0,0-2.976.327c-1.918.64-2.694,2.5-3.284,4.272a26.147,26.147,0,0,0-1.122,5.54,18.221,18.221,0,0,0,.057,5.605c.845,3.7,4.864,3.185,7.754,3.12,3.133-.071,6.267-.088,9.4-.079a312.91,312.91,0,0,1,39.113,2.279,119.865,119.865,0,0,1,16.922,3.391q2.144.6,4.264,1.269c1.6.5,3.121,1.105,4.786.476,2.032-.767,2.454-2.488,2.693-4.446a36.391,36.391,0,0,0,.2-6.348,39.666,39.666,0,0,0-.778-6.153,4.575,4.575,0,0,0-3.828-3.548c-3.629-.86-7.271-1.667-10.933-2.379a215.135,215.135,0,0,0-22.095-3.077c-2.1-.186-4.2-.344-6.3-.487C112.326,117.321,112.337,121.322,114.9,121.5Z"/><path class="f" d="M254.4,183.645q.24.124.477.236a83.32,83.32,0,0,0,8.87-12.041c-6.251-2.326-10.026-3.642-14.327-7.25l-.686-.582a47.829,47.829,0,0,1-6.366,8.771l4.163,4.644A31.612,31.612,0,0,0,254.4,183.645Z"/><path class="f" d="M385.361,187.014a73.368,73.368,0,0,1-17.646-14l-4.879-5.695c.106-.385.209-.782.305-1.18l.423.041a5.784,5.784,0,0,0,4.276-1.5,11.778,11.778,0,0,0,2.374-3.024l1.393,1.582c6.823,7.739,14.644,9.755,23.793,11.976a83.317,83.317,0,0,1-7.388,13A18.5,18.5,0,0,1,385.361,187.014Z"/><path class="d" d="M260.369,140a4.784,4.784,0,0,0-4.261-2.344,5.229,5.229,0,0,0-3.724,1.286s.9-29.25-33.992-29.25-31.711,28.682-31.711,28.682a5.233,5.233,0,0,0-3.7-1.351,4.788,4.788,0,0,0-4.3,2.27c-1.476,2.435-1.453,6.945-.5,9.743a14.975,14.975,0,0,0,4.493,7.205,5.676,5.676,0,0,0,4.713,1.187,37.5,37.5,0,0,0,7.293,13.627,29.223,29.223,0,0,0,9.922,7.985,12.385,12.385,0,0,1-1.086,4.191,9.344,9.344,0,0,1-2.12,2.53,39.067,39.067,0,0,1-6.98,5.1v0c3.684,6.46,14.705,12.984,25.593,13.078,13,.112,21.545-7.833,25.133-12.645a39.3,39.3,0,0,1-6.887-5.218,9.335,9.335,0,0,1-2.08-2.57,12.985,12.985,0,0,1-1.059-4.815c7.555-4.1,13.531-13.919,14.641-16.767a31.569,31.569,0,0,0,1.536-3.941l.418.072a5.78,5.78,0,0,0,4.376-1.185,14.982,14.982,0,0,0,4.617-7.126C261.7,146.966,261.8,142.457,260.369,140Z"/><path class="f" d="M26.564,183.5a3.685,3.685,0,0,1,2.855-2.62,4.281,4.281,0,0,1,4.96,1.937c1.666,2.931,1.753,10.586.131,13.36a2.861,2.861,0,0,1-.84.921c.047,1.075.08,1.812.08,1.812.1,2.384.831,6.611-.238,9.108-1.636,3.819-4.045,6.133-7.068,7.186-.04.643-.07,1.128-.07,1.128-.047.775-.067,2.013-.081,3.341-5.9.7-11.842,1.614-17.77,2.69-.575-1.921-1.442-5.818-1.238-8.051.187-2.044-1.306-3.843-2.387-5.587a17.15,17.15,0,0,1-2.893-7.778,39.852,39.852,0,0,1,.932-8.759c1.07-4.989,3.256-10.536,5.357-12.28,3.6-3.339,7.078-2.04,11.472-.785,1.151.328,5.629,2.064,6.585,4.1Z"/><path class="e" d="M16.031,171.534c-.88-13.325-2.921-43.809-3.052-57.753a2.525,2.525,0,0,1,2.306-2.514,68.761,68.761,0,0,1,18.1.474,82.211,82.211,0,0,1,18.089,4.618,2.613,2.613,0,0,1,1.5,3.311c-4.306,11.837-15.817,40.559-20.664,54.226Z"/><path class="e" d="M268.083,308.709l-.18-2.73c-.34-8.51-1.09-22.55-1.28-30.6-.313-12.628-1.372-27.921-1.757-40.837.609-.472,1.018-.795,1.018-.795,4.425-4.6,13.805-18.57,19.759-23.157a87.159,87.159,0,0,1,7.532-5.185c-4.432-2.645-8.532-5.094-8.532-5.094a103.972,103.972,0,0,0-32.47-10.742s-18.03-2.423-32.03-2.257c-13.691.163-33.44,2.607-33.44,2.607-8.39,1.2-25.394,6.893-33.06,12.227l-8.609,4.693a53.564,53.564,0,0,1,6.112,4.3c3.645,2.988,7,7.287,10.33,11.121,3.951,4.543,6.17,7.831,10.461,12.1-.269,13.307-1.367,27.375-1.7,41.017-.19,8.05-.94,22.09-1.28,30.6l-.07,2.73Z"/><path class="d" d="M423.4,206.142a9.6,9.6,0,0,0-1.85-1.944c-3.8-2.337-7.1-4.389-10.739-6.167a26.6,26.6,0,0,0-2.673-1.071,6.059,6.059,0,0,0-4.548.249c-1.195.569-2.775,2.715-2.343,4.2l-3.239.408c-.923-.147-1.756-.644-2.668-.846a5.712,5.712,0,0,0-5.255,1.987,14.281,14.281,0,0,0-2.682,5.192,8.038,8.038,0,0,0-.073,4.561,3.012,3.012,0,0,0,1.97,2.042,4.858,4.858,0,0,0,4.059-.427l-.255,2.3a6.432,6.432,0,0,0-1.16,1.655,4.472,4.472,0,0,0,.881,4.72,57.435,57.435,0,0,0,4.269,3.971l1.727-1.864c1.652,1.367,2.969,3.09,3.133,4.822,1.1,9.488,3.434,13.363,7.178,14.4a21.263,21.263,0,0,0,9.078.377c.815-.2,4.5-1.258,5.037-1.9,1.054-1.269,2.223-2.206,2.644-3.89a10.276,10.276,0,0,0-.011-4.263c-.3-1.691-.814-5.992-1.017-8.855a55.489,55.489,0,0,1,.332-11.4,10.51,10.51,0,0,0-.918-6.932A10.052,10.052,0,0,0,423.4,206.142Z"/><path class="e" d="M329.46,120.8a219.69,219.69,0,0,0-39.862,7.591,2.247,2.247,0,0,0-1.678,1.686,38.609,38.609,0,0,0,.08,13.812,2.251,2.251,0,0,0,3.08,1.332c12.882-4.752,22.115-6.445,41.22-8.6,7.781-.877,25.473-1.772,35.17-1.739a2.3,2.3,0,0,0,2.427-2.022,25.8,25.8,0,0,0-1.324-9.632,13.96,13.96,0,0,0-1.095-2.439,2.153,2.153,0,0,0-1.83-.973C360.285,119.656,340.248,119.675,329.46,120.8Z"/></svg>
